<svg width="25" height="25" viewBox="0 0 25 25" fill="none" xmlns="http://www.w3.org/2000/svg">
<path d="M17.1875 6.25H18.75V7.8125C18.75 8.0197 18.8323 8.21841 18.9788 8.36493C19.1253 8.51144 19.324 8.59375 19.5312 8.59375C19.7385 8.59375 19.9372 8.51144 20.0837 8.36493C20.2302 8.21841 20.3125 8.0197 20.3125 7.8125V6.25H21.875C22.0822 6.25 22.2809 6.16769 22.4274 6.02118C22.5739 5.87466 22.6562 5.67595 22.6562 5.46875C22.6562 5.26155 22.5739 5.06284 22.4274 4.91632C22.2809 4.76981 22.0822 4.6875 21.875 4.6875H20.3125V3.125C20.3125 2.9178 20.2302 2.71909 20.0837 2.57257C19.9372 2.42606 19.7385 2.34375 19.5312 2.34375C19.324 2.34375 19.1253 2.42606 18.9788 2.57257C18.8323 2.71909 18.75 2.9178 18.75 3.125V4.6875H17.1875C16.9803 4.6875 16.7816 4.76981 16.6351 4.91632C16.4886 5.06284 16.4062 5.26155 16.4062 5.46875C16.4062 5.67595 16.4886 5.87466 16.6351 6.02118C16.7816 6.16769 16.9803 6.25 17.1875 6.25Z" fill="#304FFE"/>
<path d="M22.6501 20.7018C21.1923 18.191 18.8577 16.3079 16.0954 15.4144C17.0279 14.8586 17.8193 14.0946 18.4077 13.1823C18.9962 12.27 19.3657 11.2339 19.4874 10.1551C18.8738 10.1431 18.2894 9.89106 17.8595 9.45312C17.4295 9.01519 17.1883 8.42621 17.1875 7.8125C16.6585 7.81261 16.1451 7.63372 15.7306 7.30494C15.3162 6.97616 15.0253 6.51684 14.9051 6.00169C14.7848 5.48654 14.8425 4.94587 15.0686 4.46763C15.2947 3.9894 15.676 3.60174 16.1504 3.36772C15.3592 2.88653 14.4808 2.5664 13.5656 2.42573C12.6503 2.28506 11.7163 2.32661 10.8172 2.54801C9.91804 2.7694 9.07152 3.16627 8.32623 3.71582C7.58095 4.26536 6.95159 4.95675 6.47431 5.75026C5.99704 6.54378 5.68126 7.42377 5.54511 8.3397C5.40897 9.25562 5.45514 10.1894 5.68097 11.0874C5.90681 11.9855 6.30785 12.83 6.86108 13.5726C7.4143 14.3152 8.10879 14.9411 8.90465 15.4144C6.14235 16.3078 3.80786 18.1909 2.3501 20.7016C2.28138 20.8204 2.24515 20.9551 2.24506 21.0923C2.24496 21.2295 2.28099 21.3643 2.34954 21.4832C2.41808 21.602 2.51671 21.7007 2.63552 21.7693C2.75432 21.838 2.8891 21.8741 3.0263 21.8741L21.9739 21.8743C22.1111 21.8743 22.2458 21.8382 22.3647 21.7695C22.4835 21.7009 22.5821 21.6022 22.6506 21.4834C22.7192 21.3645 22.7552 21.2297 22.7551 21.0925C22.755 20.9553 22.7188 20.8205 22.6501 20.7018L22.6501 20.7018Z" fill="#304FFE"/>
</svg>
