<svg width="77" height="20" viewBox="0 0 77 20" fill="none" xmlns="http://www.w3.org/2000/svg">
<path d="M13.4766 6.50781H10.3359C10.3359 5.66406 10.25 5.0625 10.0781 4.70312C9.92188 4.34375 9.71875 4.05469 9.46875 3.83594C8.98438 3.41406 8.39844 3.20312 7.71094 3.20312C7.16406 3.20312 6.64062 3.32813 6.14062 3.57812C5.64062 3.8125 5.17969 4.19531 4.75781 4.72656C4.33594 5.28906 4 6.00781 3.75 6.88281C3.5 7.75781 3.375 8.64062 3.375 9.53125C3.375 10.0938 3.44531 10.7734 3.58594 11.5703C3.72656 12.3672 3.98438 13.1484 4.35938 13.9141C4.73438 14.6172 5.23438 15.2031 5.85938 15.6719C6.48438 16.125 7.27344 16.3516 8.22656 16.3516C8.92969 16.3516 9.64062 16.2266 10.3594 15.9766C11.0938 15.7109 11.9531 15.2344 12.9375 14.5469V17.7344C12.8438 17.7969 12.6094 17.9219 12.2344 18.1094C11.875 18.2969 11.4922 18.4531 11.0859 18.5781C10.0547 18.875 8.9375 19.0234 7.73438 19.0234C6.4375 19.0234 5.3125 18.7422 4.35938 18.1797C3.40625 17.6016 2.61719 16.8516 1.99219 15.9297C1.38281 15.0078 0.945312 14 0.679688 12.9062C0.429688 11.7969 0.304688 10.6719 0.304688 9.53125C0.304688 8.375 0.4375 7.26562 0.703125 6.20312C0.984375 5.125 1.4375 4.1875 2.0625 3.39062C2.67188 2.57813 3.44531 1.89844 4.38281 1.35156C5.32031 0.804687 6.42969 0.53125 7.71094 0.53125C8.49219 0.53125 9.23438 0.671875 9.9375 0.953125C10.6406 1.23438 11.25 1.60938 11.7656 2.07812C12.2969 2.53125 12.7109 3.08594 13.0078 3.74219C13.3203 4.39844 13.4766 5.32031 13.4766 6.50781ZM25.8281 6.20312C25.8281 7.03125 25.6406 7.78906 25.2656 8.47656C24.9062 9.16406 24.4219 9.71094 23.8125 10.1172C23.4844 10.3359 23.2734 10.4531 23.1797 10.4688C23.8828 10.8438 24.4609 11.6484 24.9141 12.8828C25.4766 14.4297 25.9453 16.375 26.3203 18.7188H23.1562C22.7188 15.75 22.1953 13.8281 21.5859 12.9531C20.9453 12.0156 20.1328 11.5469 19.1484 11.5469H18.1172V8.75781H19.3594C19.9219 8.75781 20.3906 8.72656 20.7656 8.66406C21.1562 8.58594 21.4844 8.4375 21.75 8.21875C22.0312 8.03125 22.2734 7.75781 22.4766 7.39844C22.6953 7.03906 22.8047 6.64062 22.8047 6.20312C22.8047 5.6875 22.6953 5.26562 22.4766 4.9375C22.2734 4.59375 22.0391 4.32812 21.7734 4.14062C21.4609 3.92187 21.1094 3.76562 20.7188 3.67188C20.3438 3.57812 19.9922 3.53125 19.6641 3.53125H17.8359V18.7188H14.8125V0.835938H19.5938C20.375 0.835938 21.125 0.945312 21.8438 1.16406C22.5625 1.36719 23.2109 1.65625 23.7891 2.03125C24.4141 2.45312 24.9062 3 25.2656 3.67188C25.6406 4.34375 25.8281 5.1875 25.8281 6.20312ZM44.5312 3.55469V16.0234H45.75C45.9844 16.0234 46.3125 16.0156 46.7344 16C47.1719 15.9688 47.5078 15.9141 47.7422 15.8359C48.0391 15.7578 48.3594 15.5859 48.7031 15.3203C49.0625 15.0547 49.4062 14.6797 49.7344 14.1953C50.0625 13.6953 50.3281 13.0938 50.5312 12.3906C50.75 11.6719 50.8594 10.8125 50.8594 9.8125C50.8594 8.78125 50.75 7.91406 50.5312 7.21094C50.3281 6.50781 50.0625 5.90625 49.7344 5.40625C49.4062 4.92188 49.0625 4.54688 48.7031 4.28125C48.3594 4 48.0391 3.82031 47.7422 3.74219C47.5078 3.67969 47.1719 3.63281 46.7344 3.60156C46.3125 3.57031 45.9844 3.55469 45.75 3.55469H44.5312ZM41.5312 0.835938H45.5625C46.0781 0.835938 46.6172 0.875 47.1797 0.953125C47.7578 1.01562 48.2656 1.09375 48.7031 1.1875C49.4375 1.39062 50.1094 1.73438 50.7188 2.21875C51.3438 2.6875 51.8906 3.27344 52.3594 3.97656C52.8281 4.64844 53.1953 5.47656 53.4609 6.46094C53.7422 7.42969 53.8828 8.54688 53.8828 9.8125C53.8828 11.0469 53.7422 12.1562 53.4609 13.1406C53.1953 14.125 52.8281 14.9531 52.3594 15.625C51.8906 16.3281 51.3438 16.9219 50.7188 17.4062C50.1094 17.875 49.4375 18.2109 48.7031 18.4141C48.2656 18.5078 47.7578 18.5859 47.1797 18.6484C46.6172 18.6953 46.0781 18.7188 45.5625 18.7188H41.5312V0.835938ZM65.2969 18.7188H55.4062V0.835938H65.1094V3.55469H58.4297V8.05469H64.8047V10.75H58.4297V16.0234H65.2969V18.7188ZM76.8516 18.7188H66.9375V0.835938H69.9609V16.0234H76.8516V18.7188Z" fill="white"/>
<path d="M33.375 16.2812C33.9062 16.3125 34.3672 16.2109 34.7578 15.9766C35.1484 15.7422 35.4531 15.4375 35.6719 15.0625C35.9219 14.5938 36.1016 14.0938 36.2109 13.5625C36.3359 13.0156 36.3984 12.4141 36.3984 11.7578V0.835938H39.4219V11.9453C39.4219 12.6797 39.3516 13.4531 39.2109 14.2656C39.0859 15.0781 38.7969 15.8281 38.3438 16.5156C37.9062 17.2188 37.2812 17.8125 36.4688 18.2969C35.6562 18.7656 34.625 19 33.375 19C32.125 19 31.0938 18.7656 30.2812 18.2969C29.4688 17.8125 28.8438 17.2188 28.4062 16.5156C27.9531 15.8281 27.6641 15.0781 27.5391 14.2656C27.4141 13.4375 27.3516 12.6641 27.3516 11.9453V0.835938H30.375V11.7578C30.375 12.4141 30.4297 13.0156 30.5391 13.5625C30.6484 14.0938 30.8281 14.5938 31.0781 15.0625C31.2969 15.4375 31.5938 15.7344 31.9688 15.9531C32.3594 16.1719 32.8281 16.2812 33.375 16.2812Z" fill="#FF0000"/>
</svg>
